{"glyphs":{":":{"x_min":0,"x_max":186,"ha":186,"o":"m 93 439 q 115 439 132 423 q 148 406 148 384 q 148 362 132 345 q 115 329 93 329 q 71 329 54 345 q 38 362 38 384 q 38 407 54 423 q 70 439 93 439 z m 93 103 q 115 103 132 87 q 148 70 148 48 q 148 25 132 9 q 115 -7 93 -7 q 71 -7 54 9 q 38 25 38 48 q 38 70 54 87 q 71 103 93 103 z"},"$":{"x_min":0,"x_max":338,"ha":338,"o":"m 208 337 q 264 284 286 244 q 307 204 307 156 q 307 97 281 55 q 255 13 208 -1 l 208 -87 l 191 -87 l 191 -5 q 175 -7 167 -7 q 157 -7 152 -6 l 152 -87 l 135 -87 l 135 -3 q 89 8 62 44 q 34 81 34 123 q 34 142 47 155 q 60 169 78 169 q 94 169 103 159 q 113 148 113 132 q 113 107 85 92 q 72 85 72 79 q 72 62 89 42 q 106 22 135 13 l 135 303 q 78 358 56 399 q 34 440 34 494 q 34 545 61 583 q 88 620 135 636 l 135 652 l 152 652 l 152 641 q 168 643 177 643 q 187 643 191 642 l 191 652 l 208 652 l 208 639 q 250 629 276 600 q 301 570 301 535 q 301 519 290 507 q 280 495 265 495 q 236 495 236 528 q 236 549 252 560 q 262 566 262 573 q 262 587 248 602 q 234 618 208 624 z m 191 354 l 191 627 q 188 628 177 628 q 163 628 152 624 l 152 394 q 160 385 181 364 q 182 363 186 360 q 189 357 191 354 z m 135 413 l 135 616 q 93 588 93 522 q 93 466 135 413 z m 191 12 l 191 247 q 165 276 152 286 l 152 9 q 157 8 167 8 q 180 8 191 12 z m 208 21 q 248 49 248 118 q 248 173 208 226 z"},"?":{"x_min":0,"x_max":314,"ha":314,"o":"m 118 189 l 118 222 q 118 302 130 341 q 143 379 177 412 q 233 468 233 523 q 233 570 209 599 q 185 629 143 629 q 114 629 89 610 q 65 592 65 573 q 65 567 80 564 q 118 555 118 520 q 118 501 106 489 q 95 477 77 477 q 57 477 43 492 q 29 507 29 529 q 29 574 64 609 q 99 644 153 644 q 217 644 256 601 q 295 558 295 494 q 295 442 272 404 q 250 367 190 319 q 143 281 133 189 z m 126 103 q 148 103 165 87 q 181 70 181 48 q 181 25 165 9 q 148 -7 126 -7 q 104 -7 87 9 q 71 25 71 48 q 71 70 87 87 q 104 103 126 103 z"},"<":{"x_min":0,"x_max":667,"ha":667,"o":"m 598 72 l 69 295 l 69 353 l 598 576 l 598 506 l 155 324 l 598 141 z"},"'":{"x_min":0,"x_max":238,"ha":238,"o":"m 130 319 l 108 319 q 68 580 68 588 q 68 612 83 628 q 97 644 119 644 q 141 644 155 628 q 170 612 170 588 q 170 580 163 534 z"},"=":{"x_min":0,"x_max":667,"ha":667,"o":"m 599 407 l 68 407 l 68 472 l 599 472 z m 599 179 l 68 179 l 68 243 l 599 243 z"},"a":{"x_min":0,"x_max":305,"ha":305,"o":"m 297 63 q 297 30 281 12 q 265 -6 236 -6 q 191 -6 179 39 q 157 -6 102 -6 q 67 -6 44 21 q 21 49 21 94 q 21 129 39 156 q 57 183 107 215 q 167 254 173 266 l 173 377 q 173 399 160 411 q 147 424 125 424 q 110 424 97 417 q 83 410 83 404 q 83 395 93 389 q 114 378 114 355 q 114 338 103 326 q 92 315 75 315 q 56 315 44 328 q 32 341 32 360 q 32 390 63 415 q 94 439 138 439 q 184 439 216 403 q 249 366 249 310 l 249 43 q 249 21 263 21 q 282 21 282 73 l 297 73 z m 173 80 l 173 245 q 165 236 147 223 q 119 203 110 184 q 101 166 101 138 l 101 67 q 101 21 134 21 q 147 21 160 38 q 173 54 173 80 z"},"L":{"x_min":0,"x_max":303,"ha":303,"o":"m 292 177 l 290 0 l 21 0 l 21 15 l 64 15 l 64 621 l 21 621 l 21 636 l 190 636 l 190 621 l 147 621 l 147 15 l 170 15 q 218 15 243 54 q 268 93 277 177 z"},"3":{"x_min":0,"x_max":338,"ha":338,"o":"m 160 341 q 228 333 268 284 q 309 234 309 168 q 309 91 267 42 q 224 -7 156 -7 q 100 -7 65 27 q 31 61 31 105 q 31 128 44 144 q 58 160 78 160 q 100 160 113 147 q 126 134 126 114 q 126 86 95 68 q 81 59 81 54 q 81 40 101 25 q 122 10 147 10 q 194 10 211 44 q 228 78 228 150 q 228 334 117 334 l 93 334 l 93 349 l 107 349 q 216 349 216 479 q 216 555 201 591 q 187 626 147 626 q 125 626 106 611 q 87 597 87 583 q 87 578 99 572 q 115 562 121 554 q 127 545 127 529 q 127 509 115 497 q 102 485 82 485 q 62 485 49 499 q 36 512 36 533 q 36 575 71 609 q 105 643 166 643 q 225 643 260 603 q 295 562 295 501 q 295 441 261 400 q 227 358 160 343 z"},";":{"x_min":0,"x_max":186,"ha":186,"o":"m 60 -105 q 96 -82 114 -54 q 133 -27 133 -4 q 133 12 123 12 q 118 12 112 6 q 98 -8 83 -8 q 63 -8 50 7 q 36 22 36 44 q 36 68 52 86 q 68 103 91 103 q 118 103 135 80 q 153 58 153 22 q 153 -65 69 -117 z m 93 439 q 115 439 132 423 q 148 406 148 384 q 148 362 132 345 q 115 329 93 329 q 71 329 54 345 q 38 362 38 384 q 38 407 54 423 q 70 439 93 439 z"},"J":{"x_min":0,"x_max":306,"ha":306,"o":"m 285 621 l 242 621 l 242 99 q 242 -3 210 -51 q 179 -98 104 -98 q 60 -98 33 -74 q 7 -50 7 -17 q 7 2 19 15 q 32 27 52 27 q 68 27 81 15 q 93 2 93 -14 q 93 -38 75 -53 q 69 -58 69 -60 q 69 -67 81 -74 q 93 -81 107 -81 q 133 -81 147 -66 q 160 -51 160 -22 l 159 2 l 159 621 l 116 621 l 116 636 l 285 636 z"},"V":{"x_min":0,"x_max":374,"ha":374,"o":"m 374 621 l 361 621 q 324 621 314 570 l 197 -9 l 178 -9 l 40 621 l 0 621 l 0 636 l 165 636 l 165 621 l 124 621 l 218 180 l 296 566 q 299 584 299 591 q 299 621 267 621 l 244 621 l 244 636 l 374 636 z"},"\"":{"x_min":0,"x_max":408,"ha":408,"o":"m 300 319 l 278 319 q 238 580 238 588 q 238 612 253 628 q 268 644 289 644 q 311 644 325 628 q 340 612 340 588 q 340 580 333 534 z m 130 319 l 108 319 q 68 580 68 588 q 68 612 83 628 q 97 644 119 644 q 141 644 155 628 q 170 612 170 588 q 170 580 163 534 z"},"7":{"x_min":0,"x_max":338,"ha":338,"o":"m 329 619 l 288 528 q 268 481 243 421 q 219 361 201 314 q 184 267 174 230 q 164 194 164 173 q 164 141 176 106 q 191 61 191 42 q 191 21 177 6 q 164 -8 144 -8 q 121 -8 107 8 q 94 24 94 52 q 94 109 140 219 l 281 558 l 109 558 q 76 558 66 542 q 56 525 43 480 l 27 480 l 59 634 l 329 634 z"},"S":{"x_min":0,"x_max":339,"ha":339,"o":"m 273 462 q 262 544 233 586 q 204 629 165 629 q 139 629 122 606 q 104 583 104 546 q 104 504 122 468 q 140 433 191 377 q 262 299 291 245 q 319 191 319 137 q 319 75 281 34 q 242 -7 174 -7 q 136 -7 100 23 q 86 35 80 35 q 55 35 52 0 l 37 0 l 37 198 l 52 198 q 62 106 98 57 q 133 8 175 8 q 209 8 228 31 q 246 54 246 96 q 246 143 221 188 q 197 234 137 298 q 83 355 59 400 q 35 444 35 488 q 35 562 72 603 q 108 644 164 644 q 195 644 231 622 q 248 611 255 611 q 273 611 273 633 l 273 636 l 288 636 l 288 462 z"},"}":{"x_min":0,"x_max":320,"ha":320,"o":"m 276 184 q 181 167 181 77 q 181 39 192 -1 q 207 -58 207 -90 q 207 -165 165 -207 q 124 -249 36 -249 l 36 -234 q 130 -225 130 -126 q 130 -90 118 -41 q 106 10 106 42 q 106 95 139 134 q 171 172 233 190 l 233 193 q 171 210 139 249 q 106 288 106 341 q 106 373 118 424 q 130 474 130 509 q 130 608 36 617 l 36 632 q 120 632 164 591 q 207 550 207 473 q 207 441 192 384 q 181 344 181 306 q 181 216 276 199 z"},"Z":{"x_min":0,"x_max":324,"ha":324,"o":"m 318 621 l 108 15 l 142 15 q 209 15 246 62 q 283 109 298 197 l 313 197 l 305 0 l 20 0 l 20 15 l 230 621 l 180 621 q 122 621 91 579 q 60 537 50 453 l 35 453 l 35 636 l 318 636 z"},"x":{"x_min":0,"x_max":321,"ha":321,"o":"m 315 0 l 186 0 l 186 15 l 213 15 l 143 173 l 101 83 q 84 47 84 36 q 84 15 107 15 l 126 15 l 126 0 l 10 0 l 10 15 l 27 15 q 49 15 69 58 l 134 193 l 36 416 l 10 416 l 10 431 l 139 431 l 139 416 l 112 416 l 174 276 q 223 380 225 385 q 227 390 227 398 q 227 415 192 416 l 192 431 l 300 431 l 300 416 l 290 416 q 272 416 261 406 q 249 396 240 376 l 183 255 l 289 15 l 315 15 z"},")":{"x_min":0,"x_max":220,"ha":220,"o":"m 10 635 q 90 542 133 425 q 175 307 175 187 q 175 67 133 -50 q 90 -167 10 -260 l 10 -240 q 50 -174 73 -71 q 95 32 95 139 l 95 235 q 95 343 72 447 q 49 550 10 615 z"},"&":{"x_min":0,"x_max":450,"ha":450,"o":"m 437 344 l 425 344 q 407 344 401 333 q 395 323 389 287 q 370 161 344 106 l 383 17 l 427 17 l 427 1 l 299 1 l 285 33 q 238 -3 186 -3 q 116 -3 68 61 q 21 124 21 198 q 21 311 135 373 q 101 458 101 501 q 101 563 134 603 q 167 643 221 643 q 268 643 300 611 q 332 580 332 535 q 332 488 305 457 q 277 425 216 394 l 335 125 q 369 215 369 317 q 369 336 360 340 q 352 344 334 344 l 334 359 l 437 359 z m 209 410 q 240 428 256 454 q 272 481 272 529 q 272 576 259 600 q 246 624 219 624 q 194 624 180 602 q 166 580 166 542 q 166 505 209 410 z m 279 47 l 142 358 q 87 326 87 272 q 87 209 120 144 q 152 78 180 54 q 208 30 232 30 q 252 30 279 47 z"},"_":{"x_min":0,"x_max":500,"ha":500,"o":"m 509 -124 l -9 -124 l -9 -76 l 509 -76 z"},"v":{"x_min":0,"x_max":321,"ha":321,"o":"m 321 416 q 296 415 285 405 q 274 395 263 354 l 165 -8 l 156 -8 l 35 416 l 0 416 l 0 431 l 154 431 l 154 416 l 111 416 l 185 143 l 225 292 q 243 362 245 369 q 246 376 246 384 q 246 396 237 406 q 228 416 216 416 l 195 416 l 195 431 l 321 431 z"},"O":{"x_min":0,"x_max":366,"ha":366,"o":"m 185 644 q 260 644 297 566 q 333 489 333 326 q 333 160 295 76 q 258 -7 183 -7 q 109 -7 71 78 q 33 164 33 326 q 33 478 67 561 q 102 644 182 644 z m 242 106 l 242 535 q 242 578 225 603 q 208 629 182 629 q 157 629 140 601 q 124 574 124 527 l 124 106 q 124 62 141 35 q 158 8 185 8 q 210 8 226 35 q 242 62 242 106 z"},"(":{"x_min":0,"x_max":220,"ha":220,"o":"m 210 -260 q 130 -167 87 -50 q 45 67 45 187 q 45 307 87 425 q 129 542 210 635 l 210 615 q 170 548 147 445 q 125 342 125 235 l 125 139 q 125 31 148 -72 q 170 -175 210 -240 z"},"C":{"x_min":0,"x_max":294,"ha":294,"o":"m 281 0 l 266 0 q 258 17 246 29 q 220 -7 183 -7 q 109 -7 71 78 q 33 164 33 326 q 33 478 67 561 q 102 644 182 644 q 215 644 239 608 q 252 621 259 636 l 274 636 l 274 482 l 259 482 q 243 558 225 594 q 207 630 182 630 q 157 630 140 602 q 124 574 124 527 l 124 106 q 124 62 141 35 q 158 7 184 7 q 217 7 235 47 q 253 88 266 177 l 281 177 z"},"W":{"x_min":0,"x_max":544,"ha":544,"o":"m 544 621 l 531 621 q 512 621 501 610 q 490 599 484 570 l 357 -9 l 338 -9 l 270 279 l 207 -9 l 188 -9 l 40 621 l 0 621 l 0 636 l 394 636 l 394 621 l 381 621 q 360 621 350 609 q 340 596 331 553 l 311 464 l 380 171 l 466 566 q 469 578 469 591 q 469 621 437 621 l 429 621 l 429 636 l 544 636 z m 302 502 q 319 580 319 591 q 319 621 287 621 l 274 621 z m 261 316 l 190 621 l 124 621 l 230 171 z"},"A":{"x_min":0,"x_max":374,"ha":374,"o":"m 374 0 l 209 0 l 209 15 l 250 15 l 215 178 l 100 178 q 75 55 75 45 q 75 15 107 15 l 130 15 l 130 0 l 0 0 l 0 15 l 13 15 q 50 15 60 66 l 177 645 l 196 645 l 334 15 l 374 15 z m 212 193 l 156 456 l 103 193 z"},"f":{"x_min":0,"x_max":196,"ha":196,"o":"m 58 431 q 52 489 52 511 q 52 573 74 608 q 96 643 134 643 q 159 643 177 623 q 196 604 196 578 q 196 562 187 550 q 178 539 165 539 q 150 539 141 550 q 131 561 131 577 q 131 591 139 603 q 147 614 147 616 q 147 626 130 626 q 116 626 105 609 q 95 592 95 568 q 95 491 128 431 l 178 431 l 178 416 l 136 416 l 136 15 l 178 15 l 178 0 l 18 0 l 18 15 l 60 15 l 60 416 l 18 416 l 18 431 z"},"Q":{"x_min":0,"x_max":366,"ha":366,"o":"m 142 1 q 87 23 60 105 q 33 186 33 326 q 33 478 67 561 q 102 644 182 644 l 185 644 q 260 644 297 566 q 333 489 333 326 q 333 183 306 102 q 278 20 224 0 l 224 -69 q 224 -135 275 -135 q 290 -135 296 -131 l 296 -148 q 268 -158 238 -158 q 190 -158 166 -129 q 142 -100 142 -41 z m 242 106 l 242 535 q 242 578 225 603 q 208 629 182 629 q 157 629 140 601 q 124 574 124 527 l 124 106 q 124 62 141 35 q 158 8 185 8 q 210 8 226 35 q 242 62 242 106 z"},"w":{"x_min":0,"x_max":486,"ha":486,"o":"m 486 416 q 461 415 450 405 q 439 395 428 354 l 330 -8 l 321 -8 l 241 273 l 165 -8 l 156 -8 l 35 416 l 0 416 l 0 431 l 154 431 l 154 416 l 111 416 l 185 143 l 262 431 l 271 431 l 350 143 l 390 292 q 408 362 410 369 q 411 376 411 384 q 411 397 402 406 q 393 416 381 416 l 360 416 l 360 431 l 486 431 z"},"-":{"x_min":0,"x_max":198,"ha":198,"o":"m 180 185 l 18 185 l 18 255 l 180 255 z"},"E":{"x_min":0,"x_max":344,"ha":344,"o":"m 319 0 l 21 0 l 21 15 l 64 15 l 64 621 l 21 621 l 21 636 l 316 636 l 316 496 l 301 496 q 293 560 271 591 q 249 621 208 621 l 147 621 l 147 347 l 189 347 q 217 347 236 366 q 254 384 254 412 l 254 437 l 269 437 l 269 233 l 255 233 l 255 239 q 255 281 238 306 q 220 331 192 331 l 147 331 l 147 15 l 197 15 q 244 15 268 52 q 292 88 304 166 l 319 166 z"},"s":{"x_min":0,"x_max":270,"ha":270,"o":"m 216 306 q 208 364 184 394 q 160 424 125 424 q 104 424 91 409 q 78 394 78 371 q 78 346 92 326 q 105 306 155 263 q 250 181 250 104 q 250 45 221 19 q 192 -7 149 -7 q 109 -7 82 9 q 69 17 61 17 q 53 17 50 0 l 35 0 l 35 147 l 50 147 q 58 79 84 43 q 110 8 147 8 q 169 8 185 24 q 200 40 200 64 q 200 94 181 122 q 161 150 111 193 q 32 261 32 330 q 32 384 61 412 q 90 439 125 439 q 164 439 190 422 q 199 417 205 417 q 216 417 216 431 l 231 431 l 231 306 z"},">":{"x_min":0,"x_max":667,"ha":667,"o":"m 598 295 l 68 72 l 68 141 l 512 323 l 68 506 l 68 576 l 598 352 z"},"l":{"x_min":0,"x_max":196,"ha":196,"o":"m 178 0 l 18 0 l 18 15 l 60 15 l 60 621 l 18 621 l 18 636 l 136 636 l 136 15 l 178 15 z"},"8":{"x_min":0,"x_max":338,"ha":338,"o":"m 203 330 q 306 279 306 167 q 306 94 265 44 q 224 -7 169 -7 q 114 -7 73 44 q 32 94 32 167 q 32 279 135 330 q 43 379 43 488 q 43 553 80 598 q 117 643 169 643 q 220 643 258 598 q 295 553 295 488 q 295 379 203 330 z m 222 436 l 222 530 q 222 582 210 605 q 199 628 169 628 q 140 628 128 604 q 116 581 116 530 l 116 436 q 116 379 129 358 q 142 337 169 337 q 199 337 211 361 q 222 385 222 436 z m 226 120 l 226 210 q 226 267 213 294 q 200 322 169 322 q 138 322 125 294 q 112 267 112 210 l 112 120 q 112 63 125 35 q 138 8 169 8 q 200 8 213 35 q 226 63 226 120 z"},"\\":{"x_min":0,"x_max":335,"ha":335,"o":"m 275 -200 l 228 -200 l 59 635 l 106 635 z"},"e":{"x_min":0,"x_max":305,"ha":305,"o":"m 276 205 l 112 205 l 112 106 q 112 62 130 36 q 149 10 177 10 q 209 10 231 45 q 253 80 259 144 l 275 144 q 269 67 242 30 q 216 -7 165 -7 q 101 -7 66 52 q 31 110 31 218 q 31 325 64 382 q 97 439 160 439 q 218 439 247 380 q 276 322 276 205 z m 198 222 l 198 352 q 198 386 188 405 q 178 424 160 424 q 138 424 125 400 q 112 377 112 338 l 112 222 z"},"b":{"x_min":0,"x_max":357,"ha":357,"o":"m 136 403 q 161 439 199 439 q 253 439 290 376 q 326 313 326 216 q 326 118 290 56 q 253 -7 199 -7 q 161 -7 136 29 l 136 0 l 18 0 l 18 15 l 60 15 l 60 621 l 18 621 l 18 636 l 136 636 z m 245 111 l 245 321 q 245 368 230 394 q 215 420 189 420 q 171 420 154 400 q 136 381 136 355 l 136 77 q 136 51 154 32 q 171 12 189 12 q 215 12 230 38 q 245 64 245 111 z"},"%":{"x_min":0,"x_max":548,"ha":548,"o":"m 147 644 q 193 644 226 596 q 260 549 260 478 q 260 407 226 360 q 193 312 147 312 q 101 312 68 360 q 34 407 34 478 q 34 549 68 597 q 101 644 147 644 z m 147 327 q 169 327 179 359 q 189 391 189 478 q 189 565 179 597 q 169 629 147 629 q 125 629 115 597 q 105 565 105 478 q 105 391 115 359 q 125 327 147 327 z m 455 644 l 113 -14 l 93 -14 l 435 644 z m 401 318 q 447 318 481 271 q 514 225 514 154 q 514 83 480 34 q 447 -14 401 -14 q 355 -14 322 33 q 288 81 288 152 q 288 223 322 271 q 355 318 401 318 z m 402 1 q 424 1 434 33 q 444 64 444 152 q 444 240 434 271 q 424 303 402 303 q 380 303 370 271 q 360 240 360 152 q 360 64 370 33 q 380 1 402 1 z"},"m":{"x_min":0,"x_max":533,"ha":533,"o":"m 518 0 l 373 0 l 373 15 l 400 15 l 400 358 q 400 383 392 397 q 384 412 371 412 q 351 412 329 379 q 306 347 306 314 l 306 15 l 333 15 l 333 0 l 203 0 l 203 15 l 230 15 l 230 358 q 230 383 222 397 q 214 412 201 412 q 181 412 158 379 q 136 347 136 314 l 136 15 l 163 15 l 163 0 l 18 0 l 18 15 l 60 15 l 60 414 l 18 414 l 18 431 l 136 431 l 136 373 q 169 440 226 440 q 291 440 303 369 q 338 440 396 440 q 435 440 455 413 q 476 387 476 338 l 476 15 l 518 15 z"},"#":{"x_min":0,"x_max":528,"ha":528,"o":"m 484 174 l 369 174 l 345 -22 l 285 -22 l 309 174 l 183 174 l 159 -22 l 99 -22 l 123 174 l 44 174 l 44 234 l 130 234 l 152 415 l 44 415 l 44 475 l 159 475 l 183 672 l 243 672 l 219 475 l 345 475 l 369 672 l 429 672 l 405 475 l 484 475 l 484 415 l 398 415 l 376 234 l 484 234 z m 338 415 l 212 415 l 190 234 l 316 234 z"},",":{"x_min":0,"x_max":186,"ha":186,"o":"m 60 -105 q 96 -82 114 -54 q 133 -27 133 -4 q 133 12 123 12 q 118 12 112 6 q 98 -8 83 -8 q 63 -8 50 7 q 36 22 36 44 q 36 68 52 86 q 68 103 91 103 q 118 103 135 80 q 153 58 153 22 q 153 -65 69 -117 z"},"n":{"x_min":0,"x_max":363,"ha":363,"o":"m 348 0 l 203 0 l 203 15 l 230 15 l 230 357 q 230 382 222 396 q 214 411 201 411 q 181 411 158 378 q 136 346 136 313 l 136 15 l 163 15 l 163 0 l 18 0 l 18 15 l 60 15 l 60 416 l 18 416 l 18 431 l 136 431 l 136 372 q 169 439 226 439 q 265 439 285 412 q 306 386 306 337 l 306 15 l 348 15 z"},"h":{"x_min":0,"x_max":363,"ha":363,"o":"m 348 0 l 203 0 l 203 15 l 230 15 l 230 357 q 230 382 222 396 q 214 411 201 411 q 181 411 158 378 q 136 346 136 313 l 136 15 l 163 15 l 163 0 l 18 0 l 18 15 l 60 15 l 60 621 l 18 621 l 18 636 l 136 636 l 136 372 q 169 439 226 439 q 265 439 285 412 q 306 386 306 337 l 306 15 l 348 15 z"},"z":{"x_min":0,"x_max":302,"ha":302,"o":"m 288 431 l 104 15 l 152 15 q 193 15 225 61 q 256 107 266 179 l 282 179 l 282 0 l 24 0 l 208 416 l 166 416 q 130 416 102 377 q 74 338 61 266 l 44 266 l 47 431 z"},"B":{"x_min":0,"x_max":360,"ha":360,"o":"m 233 324 q 280 311 303 271 q 327 231 327 165 q 327 89 298 44 q 268 0 219 0 l 21 0 l 21 15 l 64 15 l 64 621 l 21 621 l 21 636 l 209 636 q 259 636 290 593 q 321 549 321 478 q 321 422 297 382 q 273 341 233 326 z m 232 382 l 232 559 q 232 592 222 607 q 213 621 191 621 l 147 621 l 147 333 l 184 333 q 232 333 232 382 z m 236 76 l 236 254 q 236 318 188 318 l 147 318 l 147 15 l 189 15 q 236 15 236 76 z"},"K":{"x_min":0,"x_max":407,"ha":407,"o":"m 407 0 l 251 0 l 251 15 l 286 15 l 149 318 l 147 318 l 147 15 l 182 15 l 182 0 l 21 0 l 21 15 l 64 15 l 64 621 l 21 621 l 21 636 l 182 636 l 182 621 l 147 621 l 147 332 l 149 332 l 309 587 q 313 594 313 605 q 313 621 296 621 l 281 621 l 281 636 l 384 636 l 384 621 q 362 621 352 611 q 342 601 298 534 l 203 385 l 373 15 l 407 15 z"},"R":{"x_min":0,"x_max":380,"ha":380,"o":"m 377 60 q 367 -5 314 -5 q 276 -5 256 26 q 235 56 235 115 l 235 280 q 235 308 223 322 q 211 336 188 336 l 147 336 l 147 15 l 190 15 l 190 0 l 21 0 l 21 15 l 64 15 l 64 621 l 21 621 l 21 636 l 205 636 q 263 636 294 598 q 325 560 325 490 q 325 422 302 389 q 280 357 231 345 l 231 343 l 239 343 q 274 343 296 314 q 318 285 318 236 l 318 65 q 318 32 337 32 q 357 32 362 63 z m 236 414 l 236 540 q 236 581 223 601 q 210 621 185 621 l 147 621 l 147 351 l 187 351 q 208 351 222 369 q 236 386 236 414 z"},"T":{"x_min":0,"x_max":367,"ha":367,"o":"m 347 468 l 332 468 q 325 549 300 585 q 275 621 225 621 l 225 15 l 268 15 l 268 0 l 99 0 l 99 15 l 142 15 l 142 621 q 92 621 67 585 q 42 549 35 468 l 20 468 l 20 636 l 347 636 z"},"P":{"x_min":0,"x_max":356,"ha":356,"o":"m 21 636 l 183 636 q 254 636 290 595 q 326 554 326 471 q 326 386 292 343 q 257 301 172 301 l 147 301 l 147 15 l 190 15 l 190 0 l 21 0 l 21 15 l 64 15 l 64 621 l 21 621 z m 237 424 l 237 506 q 237 560 230 584 q 223 609 205 615 q 188 621 147 621 l 147 316 l 173 316 q 205 316 221 336 q 237 355 237 424 z"},"|":{"x_min":0,"x_max":363,"ha":363,"o":"m 204 -198 l 159 -198 l 159 633 l 204 633 z"},"t":{"x_min":0,"x_max":215,"ha":215,"o":"m 206 88 q 193 -8 125 -8 q 98 -8 81 11 q 64 30 64 62 l 64 416 l 13 416 l 13 431 l 64 431 l 64 551 l 140 551 l 140 431 l 191 431 l 191 416 l 140 416 l 140 40 q 140 22 152 22 q 179 22 190 88 z"},"M":{"x_min":0,"x_max":461,"ha":461,"o":"m 441 621 l 397 621 l 397 15 l 440 15 l 440 0 l 271 0 l 271 15 l 314 15 l 314 605 l 312 605 l 207 0 l 188 0 l 80 618 l 78 618 l 78 65 q 78 37 87 26 q 97 15 121 15 l 121 0 l 17 0 l 17 15 q 41 15 51 26 q 60 37 60 65 l 60 621 l 17 621 l 17 636 l 161 636 l 230 232 l 232 232 l 301 636 l 441 636 z"},"g":{"x_min":0,"x_max":345,"ha":345,"o":"m 246 401 q 274 452 305 452 q 322 452 332 441 q 343 430 343 413 q 343 396 335 386 q 327 375 315 375 q 292 375 288 398 q 286 412 277 412 q 270 412 257 388 q 288 340 288 275 q 288 204 253 157 q 218 111 164 111 q 154 111 146 113 l 128 117 l 122 117 q 52 117 52 68 q 52 35 112 35 l 184 37 l 248 37 q 290 37 312 10 q 335 -16 335 -66 q 335 -129 287 -170 q 238 -212 160 -212 q 99 -212 59 -188 q 18 -164 18 -128 q 18 -80 96 -34 q 23 -16 23 48 q 23 124 102 130 q 40 176 40 275 q 40 346 75 393 q 110 439 164 439 q 212 439 246 401 z m 212 178 l 212 372 q 212 393 197 407 q 183 422 164 422 q 146 422 131 409 q 116 396 116 376 l 116 176 q 116 156 131 142 q 146 128 164 128 q 182 128 197 143 q 212 157 212 178 z m 121 -38 q 97 -53 82 -75 q 68 -97 68 -117 q 68 -153 94 -174 q 119 -194 156 -194 q 221 -194 264 -163 q 308 -132 308 -87 q 308 -65 295 -52 q 281 -39 257 -39 l 172 -39 q 127 -39 121 -38 z"},"j":{"x_min":0,"x_max":193,"ha":193,"o":"m 98 636 q 116 636 128 624 q 141 611 141 593 q 141 575 128 562 q 116 550 98 550 q 80 550 68 562 q 55 575 55 593 q 55 611 68 624 q 80 636 98 636 z m 136 431 l 136 30 q 136 21 138 7 q 144 -49 144 -77 q 144 -139 122 -174 q 100 -209 62 -209 q 38 -209 19 -189 q 0 -169 0 -144 q 0 -127 9 -116 q 18 -105 31 -105 q 46 -105 55 -116 q 65 -126 65 -143 q 65 -158 57 -168 q 49 -179 49 -182 q 49 -192 66 -192 q 80 -192 91 -175 q 101 -158 101 -134 q 101 -62 68 3 q 60 17 60 39 l 60 416 l 18 416 l 18 431 z"},"i":{"x_min":0,"x_max":193,"ha":193,"o":"m 98 636 q 116 636 128 624 q 141 611 141 593 q 141 575 128 562 q 116 550 98 550 q 80 550 68 562 q 55 575 55 593 q 55 611 68 624 q 80 636 98 636 z m 178 0 l 18 0 l 18 15 l 60 15 l 60 416 l 18 416 l 18 431 l 136 431 l 136 15 l 178 15 z"},"y":{"x_min":0,"x_max":321,"ha":321,"o":"m 321 416 q 296 415 285 405 q 274 395 263 354 l 135 -119 q 110 -211 60 -211 q 38 -211 22 -198 q 7 -184 7 -163 q 7 -144 18 -132 q 29 -120 48 -120 q 63 -120 73 -129 q 82 -137 82 -151 q 82 -163 77 -172 q 75 -174 75 -175 q 75 -181 81 -181 q 87 -181 97 -163 q 107 -145 117 -110 l 150 14 l 35 416 l 0 416 l 0 431 l 154 431 l 154 416 l 111 416 l 185 143 l 225 292 q 243 362 245 369 q 246 376 246 384 q 246 396 237 406 q 228 416 216 416 l 195 416 l 195 431 l 321 431 z"},"@":{"x_min":0,"x_max":657,"ha":657,"o":"m 494 481 l 437 288 q 420 233 420 209 q 420 200 426 192 q 432 183 446 183 q 499 183 549 250 q 598 316 598 406 q 598 498 538 563 q 478 629 369 629 q 239 629 154 528 q 69 427 69 293 q 69 167 146 88 q 224 8 342 8 q 435 8 515 61 q 595 113 627 207 l 642 207 q 608 105 524 49 q 440 -7 340 -7 q 210 -7 123 81 q 36 168 36 302 q 36 446 133 545 q 230 644 366 644 q 481 644 548 575 q 615 506 615 404 q 615 309 560 234 q 504 158 422 158 q 398 158 384 171 q 369 184 369 206 q 369 230 376 256 l 374 257 q 298 158 238 158 q 209 158 192 183 q 175 207 175 238 q 175 290 206 348 q 237 407 283 446 q 329 484 367 484 q 415 484 427 435 l 428 435 l 439 474 z m 414 417 q 414 438 402 452 q 391 467 372 467 q 326 467 278 385 q 230 302 230 249 q 230 230 241 215 q 253 200 270 200 q 304 200 344 243 q 383 285 399 336 q 414 387 414 417 z"},".":{"x_min":0,"x_max":186,"ha":186,"o":"m 93 103 q 115 103 132 87 q 148 70 148 48 q 148 25 132 9 q 115 -7 93 -7 q 71 -7 54 9 q 38 25 38 48 q 38 70 54 87 q 71 103 93 103 z"},"p":{"x_min":0,"x_max":357,"ha":357,"o":"m 136 403 q 161 439 199 439 q 253 439 290 376 q 326 313 326 216 q 326 118 290 56 q 253 -7 199 -7 q 161 -7 136 29 l 136 -189 l 178 -189 l 178 -204 l 18 -204 l 18 -189 l 60 -189 l 60 416 l 18 416 l 18 431 l 136 431 z m 245 111 l 245 321 q 245 368 230 394 q 215 420 189 420 q 171 420 154 400 q 136 381 136 355 l 136 77 q 136 51 154 32 q 171 12 189 12 q 215 12 230 38 q 245 64 245 111 z"},"X":{"x_min":0,"x_max":387,"ha":387,"o":"m 378 0 l 216 0 l 216 15 l 251 15 l 166 271 l 110 122 q 87 59 85 52 q 83 44 83 39 q 83 15 105 15 l 121 15 l 121 0 l 16 0 l 16 15 q 52 15 65 49 l 157 297 l 49 621 l 10 621 l 10 636 l 174 636 l 174 621 l 137 621 l 203 422 l 266 590 q 267 594 267 604 q 267 621 249 621 l 231 621 l 231 636 l 343 636 l 343 621 q 319 621 308 616 q 296 612 290 601 q 284 591 259 524 l 212 396 l 338 15 l 378 15 z"},"*":{"x_min":0,"x_max":338,"ha":338,"o":"m 177 503 q 199 511 227 538 q 244 554 253 559 q 263 565 276 565 q 292 565 302 554 q 312 542 312 526 q 312 489 265 489 q 253 489 237 491 q 217 493 208 493 q 195 493 183 490 q 195 473 231 454 q 257 440 266 430 q 276 419 276 403 q 276 387 265 376 q 253 365 236 365 q 202 365 191 424 q 184 463 169 482 q 155 463 147 424 q 136 365 102 365 q 85 365 73 376 q 62 387 62 403 q 62 419 72 430 q 81 440 107 454 q 143 473 155 490 q 143 493 130 493 l 73 489 q 26 489 26 526 q 26 542 36 554 q 46 565 62 565 q 75 565 85 559 q 95 554 111 538 q 139 511 161 503 q 161 527 144 565 q 131 592 131 604 q 131 643 169 643 q 207 643 207 604 q 207 592 194 565 q 177 527 177 503 z"},"Y":{"x_min":0,"x_max":380,"ha":380,"o":"m 376 621 q 367 621 359 620 q 352 618 346 615 q 340 612 335 607 q 331 602 327 595 q 323 588 320 578 l 232 291 l 232 15 l 275 15 l 275 0 l 106 0 l 106 15 l 149 15 l 149 288 l 47 621 l 4 621 l 4 636 l 176 636 l 176 621 l 133 621 l 223 322 l 225 322 l 285 518 q 307 591 307 601 q 307 621 284 621 l 267 621 l 267 636 l 376 636 z"},"c":{"x_min":0,"x_max":294,"ha":294,"o":"m 265 137 q 259 60 237 27 q 216 -7 165 -7 q 101 -7 66 52 q 31 110 31 218 q 31 323 68 381 q 104 439 170 439 q 208 439 233 418 q 258 396 258 359 q 258 339 246 326 q 234 313 216 313 q 202 313 191 324 q 180 334 180 349 q 180 363 188 374 q 196 385 207 387 q 221 390 221 397 q 221 406 207 415 q 192 423 170 423 q 146 423 129 398 q 112 373 112 337 l 112 106 q 112 62 130 36 q 149 10 177 10 q 208 10 226 42 q 244 73 249 137 z"},"!":{"x_min":0,"x_max":186,"ha":186,"o":"m 85 188 q 81 320 58 438 q 41 523 41 562 q 41 601 55 622 q 70 643 93 643 q 117 643 131 622 q 145 601 145 562 q 145 523 128 438 q 105 326 101 188 z m 93 103 q 115 103 132 87 q 148 70 148 48 q 148 25 132 9 q 115 -7 93 -7 q 71 -7 54 9 q 38 25 38 48 q 38 70 54 87 q 71 103 93 103 z"},"/":{"x_min":0,"x_max":335,"ha":335,"o":"m 275 635 l 106 -200 l 59 -200 l 228 635 z"},"[":{"x_min":0,"x_max":220,"ha":220,"o":"m 196 -250 l 55 -250 l 55 632 l 196 632 l 196 617 l 131 617 l 131 -235 l 196 -235 z"},"6":{"x_min":0,"x_max":338,"ha":338,"o":"m 118 345 q 152 386 192 386 q 239 386 274 334 q 309 282 309 205 q 309 114 270 54 q 230 -7 172 -7 q 111 -7 72 65 q 33 136 33 253 q 33 400 91 505 q 148 609 258 644 l 258 628 q 127 563 116 347 z m 228 82 l 228 295 q 228 325 216 344 q 204 363 182 363 q 154 363 134 341 q 114 320 114 285 l 114 82 q 114 51 131 30 q 149 8 172 8 q 195 8 212 29 q 228 50 228 82 z"},"r":{"x_min":0,"x_max":265,"ha":265,"o":"m 138 399 q 157 439 201 439 q 225 439 242 423 q 259 407 259 384 q 259 366 247 353 q 235 340 217 340 q 200 340 189 351 q 178 362 178 377 q 178 389 190 407 q 194 413 194 414 q 194 421 186 421 q 167 421 152 395 q 136 369 136 335 l 136 15 l 178 15 l 178 0 l 18 0 l 18 15 l 60 15 l 60 416 l 18 416 l 18 431 l 136 431 l 136 399 z"},"2":{"x_min":0,"x_max":338,"ha":338,"o":"m 311 137 l 297 0 l 30 0 l 30 43 q 146 216 170 258 q 195 300 212 353 q 229 406 229 471 q 229 554 213 589 q 197 625 152 625 q 125 625 97 600 q 69 576 69 547 q 69 536 85 534 q 134 528 134 486 q 134 466 120 452 q 107 438 88 438 q 64 438 49 455 q 34 472 34 498 q 34 560 73 602 q 111 643 172 643 q 237 643 274 597 q 310 552 310 478 q 310 360 197 236 q 127 160 72 76 l 240 76 q 271 76 282 90 q 293 104 296 137 z"},"{":{"x_min":0,"x_max":320,"ha":320,"o":"m 284 -249 q 200 -249 156 -208 q 113 -167 113 -90 q 113 -58 128 -1 q 139 44 139 77 q 139 167 44 184 l 44 199 q 139 216 139 306 q 139 344 128 384 q 113 441 113 473 q 113 548 155 590 q 197 632 284 632 l 284 617 q 190 608 190 509 q 190 474 202 424 q 214 373 214 341 q 214 288 181 249 q 149 210 87 193 l 87 190 q 149 172 181 134 q 214 95 214 42 q 214 10 202 -41 q 190 -90 190 -126 q 190 -225 284 -234 z"},"9":{"x_min":0,"x_max":338,"ha":338,"o":"m 220 291 q 186 250 146 250 q 99 250 64 302 q 29 354 29 431 q 29 521 68 582 q 107 643 166 643 q 227 643 266 571 q 305 500 305 383 q 305 236 248 131 q 190 27 80 -8 l 80 8 q 211 73 222 289 z m 224 351 l 224 554 q 224 585 207 606 q 189 628 166 628 q 143 628 126 607 q 110 586 110 554 l 110 341 q 110 312 122 292 q 134 273 156 273 q 184 273 204 295 q 224 316 224 351 z"}," ":{"x_min":0,"x_max":193,"ha":193,"o":""},"I":{"x_min":0,"x_max":211,"ha":211,"o":"m 190 621 l 147 621 l 147 15 l 189 15 l 189 0 l 21 0 l 21 15 l 64 15 l 64 621 l 21 621 l 21 636 l 190 636 z"},"H":{"x_min":0,"x_max":407,"ha":407,"o":"m 386 0 l 225 0 l 225 15 l 260 15 l 260 346 l 147 346 l 147 15 l 182 15 l 182 0 l 21 0 l 21 15 l 64 15 l 64 621 l 21 621 l 21 636 l 182 636 l 182 621 l 147 621 l 147 361 l 260 361 l 260 621 l 225 621 l 225 636 l 386 636 l 386 621 l 343 621 l 343 15 l 386 15 z"},"4":{"x_min":0,"x_max":338,"ha":338,"o":"m 321 103 l 306 103 l 306 159 l 252 159 l 252 15 l 316 15 l 316 0 l 112 0 l 112 15 l 176 15 l 176 159 l 9 159 l 9 174 l 231 641 l 252 641 l 252 174 l 306 174 l 306 230 l 321 230 z m 176 174 l 176 485 l 174 485 l 26 174 z"},"~":{"x_min":0,"x_max":667,"ha":667,"o":"m 595 392 q 593 326 558 289 q 523 252 474 252 q 447 252 419 261 q 391 270 291 311 q 214 342 185 342 q 112 342 95 253 l 72 253 q 77 327 111 360 q 145 393 189 393 q 238 393 375 334 q 450 302 482 302 q 517 302 542 324 q 567 347 572 392 z"},"D":{"x_min":0,"x_max":366,"ha":366,"o":"m 21 636 l 189 636 q 270 636 302 556 q 333 475 333 310 q 333 187 317 123 q 301 59 268 29 q 234 0 179 0 l 21 0 l 21 15 l 64 15 l 64 621 l 21 621 z m 243 108 l 243 559 q 243 587 228 604 q 212 621 186 621 l 147 621 l 147 15 l 176 15 q 209 15 226 38 q 243 62 243 108 z"},"^":{"x_min":0,"x_max":530,"ha":530,"o":"m 482 326 l 423 326 l 265 593 l 107 326 l 48 326 l 255 676 l 275 676 z"},"0":{"x_min":0,"x_max":338,"ha":338,"o":"m 169 643 q 235 643 270 559 q 305 474 305 317 q 305 160 270 76 q 235 -8 169 -8 q 103 -8 68 76 q 33 160 33 317 q 33 474 68 559 q 103 643 169 643 z m 224 127 l 224 508 q 224 628 169 628 q 114 628 114 508 l 114 127 q 114 7 169 7 q 224 7 224 127 z"},"F":{"x_min":0,"x_max":332,"ha":332,"o":"m 316 496 l 301 496 q 293 560 271 591 q 249 621 208 621 l 147 621 l 147 347 l 190 347 q 218 347 236 366 q 254 384 254 412 l 254 437 l 269 437 l 269 233 l 255 233 l 255 239 q 255 281 238 306 q 220 331 192 331 l 147 331 l 147 15 l 196 15 l 196 0 l 21 0 l 21 15 l 64 15 l 64 621 l 21 621 l 21 636 l 316 636 z"},"`":{"x_min":0,"x_max":333,"ha":333,"o":"m 193 474 l 177 474 l 73 643 l 169 643 z"},"k":{"x_min":0,"x_max":363,"ha":363,"o":"m 163 0 l 18 0 l 18 15 l 60 15 l 60 621 l 18 621 l 18 636 l 136 636 l 136 15 l 163 15 z m 360 0 l 212 0 l 212 15 l 240 15 l 146 244 l 223 345 q 255 387 257 393 q 260 399 260 404 q 260 416 244 416 l 222 416 l 222 431 l 334 431 l 334 416 l 319 416 q 298 416 282 396 l 206 295 l 324 15 l 360 15 z"},"u":{"x_min":0,"x_max":363,"ha":363,"o":"m 345 0 l 227 0 l 227 44 q 198 -7 138 -7 q 99 -7 78 20 q 57 46 57 95 l 57 416 l 15 416 l 15 431 l 133 431 l 133 75 q 133 21 169 21 q 190 21 208 44 q 227 67 227 99 l 227 416 l 200 416 l 200 431 l 303 431 l 303 15 l 345 15 z"},"]":{"x_min":0,"x_max":220,"ha":220,"o":"m 165 -250 l 24 -250 l 24 -235 l 89 -235 l 89 617 l 24 617 l 24 632 l 165 632 z"},"U":{"x_min":0,"x_max":362,"ha":362,"o":"m 345 621 l 331 621 q 317 621 308 612 q 300 602 300 588 l 300 119 q 300 56 270 25 q 239 -7 179 -7 q 122 -7 90 31 q 58 70 58 141 l 58 621 l 15 621 l 15 636 l 184 636 l 184 621 l 141 621 l 141 78 q 141 48 158 31 q 175 14 205 14 q 242 14 262 42 q 283 70 283 121 l 283 588 q 283 603 275 612 q 266 621 252 621 l 238 621 l 238 636 l 345 636 z"},"o":{"x_min":0,"x_max":333,"ha":333,"o":"m 168 439 q 232 439 267 381 q 302 323 302 222 q 302 111 267 52 q 233 -7 167 -7 q 101 -7 66 53 q 31 112 31 222 q 31 325 66 382 q 102 439 168 439 z m 221 97 l 221 321 q 221 372 208 398 q 194 424 167 424 q 142 424 127 397 q 112 371 112 328 l 112 101 q 112 61 127 34 q 142 8 166 8 q 191 8 206 33 q 221 58 221 97 z"},"N":{"x_min":0,"x_max":407,"ha":407,"o":"m 388 621 l 378 621 q 345 621 345 595 l 345 0 l 279 0 l 82 554 l 80 554 l 80 72 q 80 15 118 15 l 140 15 l 140 0 l 19 0 l 19 15 q 43 15 53 24 q 62 33 62 58 l 62 621 l 19 621 l 19 636 l 142 636 l 325 117 l 327 117 l 327 578 q 327 621 285 621 l 267 621 l 267 636 l 388 636 z"},"+":{"x_min":0,"x_max":667,"ha":667,"o":"m 599 291 l 364 291 l 364 59 l 300 59 l 300 291 l 67 291 l 67 355 l 300 355 l 300 589 l 364 589 l 364 355 l 599 355 z"},"G":{"x_min":0,"x_max":367,"ha":367,"o":"m 364 260 l 321 260 l 321 66 q 303 33 266 13 q 230 -7 190 -7 q 113 -7 73 74 q 32 155 32 307 q 32 483 67 564 q 102 644 178 644 q 230 644 257 608 q 271 621 277 636 l 292 636 l 292 482 l 277 482 q 245 630 187 630 q 157 630 140 604 q 123 577 123 528 l 123 103 q 123 61 141 34 q 158 7 187 7 q 210 7 224 29 q 239 52 239 88 l 239 260 l 196 260 l 196 275 l 364 275 z"},"q":{"x_min":0,"x_max":357,"ha":357,"o":"m 339 -204 l 179 -204 l 179 -189 l 221 -189 l 221 29 q 196 -7 158 -7 q 104 -7 67 56 q 31 118 31 216 q 31 313 67 376 q 104 439 158 439 q 196 439 221 403 l 221 431 l 339 431 l 339 416 l 297 416 l 297 -189 l 339 -189 z m 221 77 l 221 355 q 221 381 204 401 q 186 420 168 420 q 142 420 127 394 q 112 368 112 321 l 112 111 q 112 64 127 38 q 142 12 168 12 q 186 12 204 32 q 221 51 221 77 z"},"d":{"x_min":0,"x_max":357,"ha":357,"o":"m 339 0 l 221 0 l 221 29 q 196 -7 158 -7 q 104 -7 67 56 q 31 118 31 216 q 31 313 67 376 q 104 439 158 439 q 196 439 221 403 l 221 621 l 179 621 l 179 636 l 297 636 l 297 15 l 339 15 z m 221 77 l 221 355 q 221 381 204 401 q 186 420 168 420 q 142 420 127 394 q 112 368 112 321 l 112 111 q 112 64 127 38 q 142 12 168 12 q 186 12 204 32 q 221 51 221 77 z"},"1":{"x_min":0,"x_max":338,"ha":338,"o":"m 282 0 l 73 0 l 73 15 l 139 15 l 139 613 l 72 613 l 72 628 l 102 628 q 129 628 155 632 l 202 641 l 215 641 l 215 15 l 282 15 z"},"5":{"x_min":0,"x_max":338,"ha":338,"o":"m 92 367 q 119 383 162 383 q 225 383 267 330 q 309 277 309 194 q 309 104 263 49 q 218 -7 146 -7 q 99 -7 65 29 q 31 64 31 104 q 31 129 44 145 q 58 160 79 160 q 100 160 114 148 q 127 135 127 116 q 127 85 96 68 q 82 61 82 54 q 82 41 101 26 q 120 11 140 11 q 228 11 228 168 q 228 273 208 318 q 187 363 139 363 q 118 363 96 350 q 87 345 80 345 q 74 345 74 353 l 81 601 q 81 620 93 620 l 237 620 q 283 620 284 644 l 299 644 q 296 544 236 544 l 95 544 z"}}}
